PathFileType	4	(X/Y/Z)	C:\Users\Graham\Documents\MATLAB\MOtoNMS_v2_2\MyData\ElaboratedData\S1\17-05-18\dynamicElaborations\rightStSt\\ET2\ET2.trc
DataRate	CameraRate	NumFrames	NumMarkers	Units	OrigDataRate	DataStartFrame
100	100	5	29	mm	100	106
Frame#	Time	V_Sacral			R_ASIS			L_ASIS			R_Knee_Lat			R_Thigh_Upper			R_Thigh_Front			R_Thigh_Rear			L_Knee_Lat			L_Thigh_Upper			L_Thigh_Front			L_Thigh_Rear			R_Ankle_Lat			R_Shank_Upper			R_Shank_Front			R_Shank_Rear			L_Ankle_Lat			L_Shank_Upper			L_Shank_Front			L_Shank_Rear			R_Heel			R_MTP1			R_MTP5			L_Heel			L_MTP1			L_MTP5			Clavicle			C7			R_Acromium			L_Acromium		
		X1	Y1	Z1	X2	Y2	Z2	X3	Y3	Z3	X4	Y4	Z4	X5	Y5	Z5	X6	Y6	Z6	X7	Y7	Z7	X8	Y8	Z8	X9	Y9	Z9	X10	Y10	Z10	X11	Y11	Z11	X12	Y12	Z12	X13	Y13	Z13	X14	Y14	Z14	X15	Y15	Z15	X16	Y16	Z16	X17	Y17	Z17	X18	Y18	Z18	X19	Y19	Z19	X20	Y20	Z20	X21	Y21	Z21	X22	Y22	Z22	X23	Y23	Z23	X24	Y24	Z24	X25	Y25	Z25	X26	Y26	Z26	X27	Y27	Z27	X28	Y28	Z28	X29	Y29	Z29	

138	1.370000	-51.213730	1026.424338	49.049269	271.468276	1028.965805	158.172609	247.438273	1030.937177	-95.940434	239.633367	530.059752	162.599246	282.017536	875.745444	189.573759	315.017540	757.337951	149.324655	266.477971	746.943088	207.384899	270.740616	538.027856	-143.931886	295.725177	868.772535	-117.205132	333.850959	755.432694	-71.348111	298.567325	744.854546	-149.705571	194.949411	108.950166	132.786177	275.479619	319.180499	121.785194	232.935128	216.162600	60.837387	237.299955	204.274812	141.079682	-38.987917	231.179074	-106.758344	170.746287	348.328892	-102.067131	74.479197	286.991431	-46.207742	62.568689	291.620382	-124.915063	118.310490	56.266346	80.602152	342.438533	63.748606	34.960699	341.163002	58.553039	115.123214	-118.911479	251.312438	-53.307628	51.470292	94.439013	-32.400397	28.088284	96.884651	-120.337724	278.210202	1463.622547	40.742373	137.355503	1573.557526	52.370098	238.348692	1489.153553	241.660849	204.932795	1505.667949	-163.600155	
139	1.380000	-52.144938	1027.427853	49.239596	270.356360	1029.682879	158.949308	246.565946	1032.214376	-95.185844	231.725747	529.629309	163.519264	279.911433	875.403223	190.688673	311.113323	756.465979	150.347909	262.238512	746.660879	208.201946	276.329176	541.042518	-143.900590	296.699406	872.311666	-117.423080	336.262879	759.537489	-71.601815	301.282352	748.543403	-149.906767	185.425840	108.933056	133.037520	267.556268	319.170406	122.907614	224.514664	216.103028	61.316961	227.589558	204.005549	141.678879	-23.897257	224.379365	-106.697937	182.047754	348.223961	-101.592088	87.637911	283.959486	-45.782375	75.872449	287.944775	-124.648721	108.543559	56.407718	80.757197	333.039626	63.644133	35.175190	331.724324	58.203735	115.278678	-104.905908	240.984661	-53.464233	72.697479	92.162084	-32.163877	49.272818	93.430073	-120.109762	277.700817	1464.620142	41.606170	136.881137	1574.528775	53.525175	238.473389	1490.252934	242.580600	203.976905	1506.883899	-162.577904	
140	1.390000	-53.110285	1028.328123	49.318349	269.179713	1030.243497	159.649936	245.722691	1033.365179	-94.505418	223.928475	529.282305	164.394373	277.645260	874.946459	191.752895	307.090016	755.509803	151.375821	257.813712	746.290878	209.002379	281.485139	543.915832	-143.889481	297.412198	875.614267	-117.642564	338.302823	763.408031	-71.832243	303.627864	752.046109	-150.099518	175.953369	108.900965	133.314001	259.753857	319.248797	123.955576	216.090326	216.055456	61.787636	217.951401	203.738376	142.272519	-8.235999	217.029591	-106.562004	193.428673	347.933478	-101.229947	101.164340	280.505301	-45.403618	89.510098	283.889631	-124.432581	98.730622	56.578217	80.919785	323.672238	63.553778	35.411167	322.317108	57.852931	115.445036	-89.953101	229.910978	-53.271439	94.475955	89.517432	-32.375328	70.825966	89.771872	-120.275062	277.182345	1465.464257	42.482609	136.384155	1575.368122	54.655929	238.571800	1491.213805	243.484912	203.033744	1507.919869	-161.573477	
141	1.400000	-54.099818	1029.129696	49.304960	267.956587	1030.642749	160.256190	244.917410	1034.375394	-93.913581	216.346255	529.047625	165.204318	275.185856	874.392176	192.698460	302.984101	754.503068	152.353203	253.281679	745.873067	209.746367	286.210361	546.645131	-143.897000	297.873511	878.663916	-117.840544	339.942957	766.991502	-72.020544	305.578847	755.329243	-150.280900	166.529634	108.857000	133.619092	251.992051	319.347621	124.897578	207.645559	216.027014	62.245464	208.465443	203.494831	142.842417	7.947340	209.297867	-106.372092	204.851881	347.529347	-101.054409	115.090086	276.714288	-45.121081	103.420747	279.602472	-124.288125	88.917340	56.762999	81.089263	314.327096	63.476478	35.663382	312.937317	57.502010	115.622650	-74.070159	218.215886	-52.693072	116.837181	86.673074	-33.146483	92.727360	86.096600	-120.925660	276.652962	1466.151079	43.361226	135.861899	1576.067887	55.758985	238.629003	1492.011903	244.357445	202.098168	1508.777364	-160.599625	
142	1.410000	-55.104599	1029.834639	49.216541	266.703839	1030.883447	160.758331	244.151309	1035.233383	-93.417895	209.017373	528.924982	165.938737	272.527430	873.761198	193.475460	298.843706	753.484188	153.224166	248.720475	745.439663	210.395698	290.505643	549.220470	-143.905906	298.105746	881.447106	-118.006336	341.173885	770.245116	-72.152991	307.145035	758.357465	-150.446588	157.146570	108.805722	133.949281	244.160348	319.382259	125.725861	199.173940	216.018664	62.688405	199.167801	203.288356	143.375647	24.632165	201.319026	-106.172104	216.287139	347.063191	-101.106141	129.438158	272.666667	-44.976012	117.556546	275.199026	-124.233282	79.164009	56.941000	81.261454	304.991415	63.411064	35.923531	303.576708	57.155903	115.809089	-57.274263	206.028468	-51.775451	139.781093	83.783773	-34.517148	114.971669	82.547204	-122.096736	276.111752	1466.682071	44.230435	135.314907	1576.624620	56.828914	238.629901	1492.631671	245.182308	201.170384	1509.469538	-159.667650	
